<svg width="390" height="287" viewBox="0 0 390 287" fill="none" xmlns="http://www.w3.org/2000/svg">
<path d="M375.067 0.666656C373.467 2.26663 348.267 10.5333 336 13.4666C324.533 16.2666 319.467 16.6667 300 16.5333C284.4 16.5333 273.6 15.7333 265.333 14.2666C238 9.06665 222.533 9.86664 206.267 17.6C196.4 22.2666 182.533 33.7333 175.2 43.2C172.4 46.9333 169.467 50.6666 168.667 51.6C168 52.4 165.2 57.2 162.667 62.2666C160 67.2 157.333 71.8666 156.8 72.4C156.133 73.0667 152.8 68.2666 149.333 61.7333C130.933 27.8666 118.133 15.7333 96.2667 12C69.2 7.19998 45.0667 21.0667 32.6667 48.4C28.5333 57.6 24.8 60.9333 7.06666 71.2C1.86666 74.2666 0.666656 75.6 0.666656 78.6666C0.666656 83.8667 2.66666 84.9333 14.6667 86C29.4667 87.3333 38.1333 90.8 44.2667 97.8667C47.0667 101.067 50.1333 106.133 51.0667 109.2C52.9333 115.733 53.2 126.133 51.3333 127.333C48.9333 128.8 49.8667 138.133 52.6667 140.667C55.4667 143.2 56.1333 147.333 54 148.667C52.1333 149.867 52.4 157.6 54.4 160C55.3333 161.067 57.0667 162.533 58.4 163.333C59.6 164 64.1333 171.733 68.4 180.4L76.2667 196.133L74.2667 202.267C72.6667 207.067 72.5333 209.733 73.6 215.2C74.6667 220.533 74.6667 222.533 73.2 224.667C72.1333 226.133 71.3333 229.867 71.3333 232.933V238.667H64.2667C58.9333 238.667 56.5333 239.333 54.9333 241.067C49.8667 246.667 53.0667 250.533 63.4667 250.933L70.6667 251.333L71.3333 267.733C72 284.533 72.8 286.667 78 286.667C83.2 286.667 84 284.533 84.6667 267.733L85.3333 251.333H92.2667C99.6 251.2 103.333 249.2 103.333 245.2C103.333 240.8 99.6 238.667 91.8667 238.667H84.6667V232.267C84.6667 227.733 84 225.067 82.4 223.6C80.6667 222.133 79.8667 219.067 79.6 212.133C79.4667 206.933 79.7333 202.667 80.2667 202.667C80.8 202.667 85.2 206.667 90 211.467C122.8 245.067 168.133 255.067 216.4 239.2C226.4 236 228.533 235.2 235.333 232.267C259.733 221.733 285.6 219.867 306.667 227.333C315.467 230.4 327.6 237.6 334 243.6C347.067 255.733 352.267 254.133 355.333 236.933C357.6 224.667 362 212.8 369.2 199.333C380.933 177.733 382.533 161.733 373.2 157.467C370.8 156.4 368.667 156.533 364.4 158.133C361.2 159.333 356.533 160.8 354 161.6C351.467 162.267 347.2 163.467 344.667 164.133C333.467 167.2 322.267 168.4 296.8 169.2C271.333 170 269.6 170.133 267.867 172.667C266.267 175.067 266.4 175.867 268.133 178.4C270.133 181.2 270.933 181.333 295.333 181.333C309.2 181.333 323.6 180.667 327.6 179.867C340.533 177.2 357.333 173.2 360 172C364.8 170 367.067 169.467 367.733 170.267C368.933 171.333 363.867 184.133 356.133 199.333C351.6 208.267 347.733 218 346.4 224.267C345.067 230 343.6 234.667 343.067 234.667C342.533 234.667 339.2 232.533 335.733 229.867C315.6 214.533 283.733 206.933 260.933 212.133C252.133 214 244.4 216.133 241.333 217.333C206 231.333 193.067 234.667 172.667 234.667C155.2 234.667 140.8 231.067 122.667 222C110.4 216 95.6 204.8 90.5333 197.733L87.6 193.867L90.8 190.267C94.2667 186.133 100.933 185.467 105.2 188.667C106.667 189.733 108.8 190.667 110.133 190.667C113.733 190.667 119.333 185.467 119.333 182C119.333 178 122.667 175.333 127.333 175.733C132.8 176.133 138 171.467 138 166C138 163.467 137.333 161.067 136.667 160.667C134.267 159.2 137.867 154.667 141.333 154.667C148.4 154.667 152.4 145.2 147.867 138.933C145.467 135.467 145.467 135.2 151.467 132.267C157.6 129.2 159.2 123.6 155.6 118.667C152.8 114.933 152.8 114.933 155.467 109.867C156.8 107.067 158 103.867 158 102.667C158.133 101.2 158.933 101.6 160.8 104C185.733 134 219.067 153.6 253.867 158.667C278.4 162.267 310.8 154.933 330.8 141.2C338.933 135.6 341.733 132.933 346.8 125.333C352.133 117.2 353.733 113.333 354.8 105.2C355.6 99.0667 356.667 97.3333 362.533 91.3333C366.267 87.6 371.067 80.9333 373.333 76.6666C376.8 69.7333 377.333 67.0667 377.467 57.0667C377.6 46.8 378 44.8 381.067 40.4C387.067 31.6 390 23.0667 390 14.1333C390 3.46664 387.733 -3.05176e-05 380.8 -3.05176e-05C378 -3.05176e-05 375.467 0.266632 375.067 0.666656ZM378.8 17.6C375.6 37.2 352.933 55.7333 320.667 65.0667C302.8 70.2666 300.267 71.3333 298.8 73.7333C296.133 78 299.467 80.6666 306.8 80.4C318.133 79.8666 348.267 68.6666 361.733 59.8666L366 57.0667V60.6666C366 72.1333 350.133 90.2666 332.4 98.9333C318.667 105.6 298.533 112 290.933 112C287.067 112 284.667 114.4 284.667 118C284.667 121.6 287.067 124 290.933 124C298.133 124 321.867 117.067 333.2 111.733C337.6 109.733 341.467 108.4 341.867 108.8C343.467 110.267 335.867 121.867 329.6 127.333C320.8 135.067 312.933 139.067 298.667 143.467C288.267 146.667 284.267 147.2 268.667 147.2C253.6 147.333 248.933 146.8 240.267 144.267C212.4 136 186.667 118.533 169.867 96.2666L163.6 87.8667L166.933 79.6C178.667 50.5333 200.267 29.7333 224.4 24C233.067 22 245.333 22.6667 270.667 26.6667C296.533 30.6667 318.533 30 342.133 24.1333C351.333 21.8666 363.067 18.2666 368.133 16.1333C373.2 14 377.867 12.1333 378.533 12.1333C379.2 12 379.2 14.5333 378.8 17.6ZM100.933 25.3333C115.467 29.6 126.8 42.6666 141.733 72.8C149.6 88.2666 151.333 93.0667 150.667 95.8667C150.133 97.7333 149.467 102.667 149.067 106.933C148.533 113.467 148 114.533 145.2 115.2C139.6 116.667 138.267 122 141.333 131.467C142 133.733 141.333 134.8 137.467 137.067C132.267 140.133 130.267 144.933 132.667 149.333C134.533 152.8 132.4 156 128.4 156C127.067 156 124.4 157.467 122.533 159.467C119.733 162.133 119.2 163.6 119.867 167.2C120.933 172.8 118.4 175.333 113.733 173.467C109.2 171.733 102.533 174.8 101.467 179.2C100.267 184.133 95.3333 183.867 91.6 178.667C89.0667 175.333 87.7333 174.667 82.8 174.667H77.0667L73.4667 166.533C71.6 162.133 70 156.8 70 154.8C70 152.8 69.4667 150.667 68.9333 150C67.2 148 64.6667 132 64.6667 123.333C64.6667 100.133 52.2667 83.2 31.0667 77.3333L22.9333 75.2L31.0667 69.2C38 64.2666 39.7333 62 42.8 54.6666C44.8 49.8666 48.1333 43.7333 50.1333 40.9333C60.8 26 81.4667 19.6 100.933 25.3333Z" fill="#0081C7"/>
<path d="M66.1333 52.9333C62.9333 56.9333 63.4667 60.6667 67.6 64.2667C71.2 67.4667 74.2667 67.3333 77.7333 63.6C81.4667 59.6 81.4667 55.8667 77.6 52.2667C73.4667 48.4 69.4667 48.5333 66.1333 52.9333Z" fill="#0081C7"/>
</svg>
