<svg width="464" height="498" viewBox="0 0 464 498" fill="none" xmlns="http://www.w3.org/2000/svg">
<path d="M403.067 0.666642C401.467 2.26664 376.267 10.5333 364 13.4666C352.533 16.2666 347.467 16.6666 328 16.5333C312.4 16.5333 301.6 15.7333 293.333 14.2666C266 9.06664 250.533 9.86664 234.267 17.6C224.4 22.2666 210.533 33.7333 203.2 43.2C200.4 46.9333 197.467 50.6666 196.667 51.6C196 52.4 193.2 57.2 190.667 62.2666C188 67.2 185.333 71.8666 184.8 72.4C184.133 73.0666 180.8 68.2666 177.333 61.7333C158.933 27.8666 146.133 15.7333 124.267 12C97.2 7.19998 73.0667 21.0666 60.6667 48.4C56.5333 57.6 52.8 60.9333 35.0667 71.2C29.8667 74.2666 28.6667 75.6 28.6667 78.6666C28.6667 83.8666 30.6667 84.9333 42.6667 86C57.4667 87.3333 66.1333 90.8 72.2667 97.8666C75.0667 101.067 78.1333 106.133 79.0667 109.2C80.9333 115.733 81.2 126.133 79.3333 127.333C76.9333 128.8 77.8667 138.133 80.6667 140.667C83.4667 143.2 84.1333 147.333 82 148.667C80.1333 149.867 80.4 157.6 82.4 160C83.3333 161.067 85.0667 162.533 86.4 163.333C87.6 164 92.1333 171.733 96.4 180.4L104.267 196.133L102.267 202.267C100.667 207.067 100.533 209.733 101.6 215.2C102.667 220.533 102.667 222.533 101.2 224.667C100.133 226.133 99.3333 229.867 99.3333 232.933V238.667H92.2667C86.9333 238.667 84.5333 239.333 82.9333 241.067C77.8667 246.667 81.0667 250.533 91.4667 250.933L98.6667 251.333L99.3333 267.733C100 284.533 100.8 286.667 106 286.667C111.2 286.667 112 284.533 112.667 267.733L113.333 251.333H120.267C127.6 251.2 131.333 249.2 131.333 245.2C131.333 240.8 127.6 238.667 119.867 238.667H112.667V232.267C112.667 227.733 112 225.067 110.4 223.6C108.667 222.133 107.867 219.067 107.6 212.133C107.467 206.933 107.733 202.667 108.267 202.667C108.8 202.667 113.2 206.667 118 211.467C150.8 245.067 196.133 255.067 244.4 239.2C254.4 236 256.533 235.2 263.333 232.267C287.733 221.733 313.6 219.867 334.667 227.333C343.467 230.4 355.6 237.6 362 243.6C375.067 255.733 380.267 254.133 383.333 236.933C385.6 224.667 390 212.8 397.2 199.333C408.933 177.733 410.533 161.733 401.2 157.467C398.8 156.4 396.667 156.533 392.4 158.133C389.2 159.333 384.533 160.8 382 161.6C379.467 162.267 375.2 163.467 372.667 164.133C361.467 167.2 350.267 168.4 324.8 169.2C299.333 170 297.6 170.133 295.867 172.667C294.267 175.067 294.4 175.867 296.133 178.4C298.133 181.2 298.933 181.333 323.333 181.333C337.2 181.333 351.6 180.667 355.6 179.867C368.533 177.2 385.333 173.2 388 172C392.8 170 395.067 169.467 395.733 170.267C396.933 171.333 391.867 184.133 384.133 199.333C379.6 208.267 375.733 218 374.4 224.267C373.067 230 371.6 234.667 371.067 234.667C370.533 234.667 367.2 232.533 363.733 229.867C343.6 214.533 311.733 206.933 288.933 212.133C280.133 214 272.4 216.133 269.333 217.333C234 231.333 221.067 234.667 200.667 234.667C183.2 234.667 168.8 231.067 150.667 222C138.4 216 123.6 204.8 118.533 197.733L115.6 193.867L118.8 190.267C122.267 186.133 128.933 185.467 133.2 188.667C134.667 189.733 136.8 190.667 138.133 190.667C141.733 190.667 147.333 185.467 147.333 182C147.333 178 150.667 175.333 155.333 175.733C160.8 176.133 166 171.467 166 166C166 163.467 165.333 161.067 164.667 160.667C162.267 159.2 165.867 154.667 169.333 154.667C176.4 154.667 180.4 145.2 175.867 138.933C173.467 135.467 173.467 135.2 179.467 132.267C185.6 129.2 187.2 123.6 183.6 118.667C180.8 114.933 180.8 114.933 183.467 109.867C184.8 107.067 186 103.867 186 102.667C186.133 101.2 186.933 101.6 188.8 104C213.733 134 247.067 153.6 281.867 158.667C306.4 162.267 338.8 154.933 358.8 141.2C366.933 135.6 369.733 132.933 374.8 125.333C380.133 117.2 381.733 113.333 382.8 105.2C383.6 99.0666 384.667 97.3333 390.533 91.3333C394.267 87.6 399.067 80.9333 401.333 76.6666C404.8 69.7333 405.333 67.0666 405.467 57.0666C405.6 46.8 406 44.8 409.067 40.4C415.067 31.6 418 23.0666 418 14.1333C418 3.46664 415.733 -2.51234e-05 408.8 -2.51234e-05C406 -2.51234e-05 403.467 0.266642 403.067 0.666642ZM406.8 17.6C403.6 37.2 380.933 55.7333 348.667 65.0666C330.8 70.2666 328.267 71.3333 326.8 73.7333C324.133 78 327.467 80.6666 334.8 80.4C346.133 79.8666 376.267 68.6666 389.733 59.8666L394 57.0666V60.6666C394 72.1333 378.133 90.2666 360.4 98.9333C346.667 105.6 326.533 112 318.933 112C315.067 112 312.667 114.4 312.667 118C312.667 121.6 315.067 124 318.933 124C326.133 124 349.867 117.067 361.2 111.733C365.6 109.733 369.467 108.4 369.867 108.8C371.467 110.267 363.867 121.867 357.6 127.333C348.8 135.067 340.933 139.067 326.667 143.467C316.267 146.667 312.267 147.2 296.667 147.2C281.6 147.333 276.933 146.8 268.267 144.267C240.4 136 214.667 118.533 197.867 96.2666L191.6 87.8666L194.933 79.6C206.667 50.5333 228.267 29.7333 252.4 24C261.067 22 273.333 22.6666 298.667 26.6666C324.533 30.6666 346.533 30 370.133 24.1333C379.333 21.8666 391.067 18.2666 396.133 16.1333C401.2 14 405.867 12.1333 406.533 12.1333C407.2 12 407.2 14.5333 406.8 17.6ZM128.933 25.3333C143.467 29.6 154.8 42.6666 169.733 72.8C177.6 88.2666 179.333 93.0666 178.667 95.8666C178.133 97.7333 177.467 102.667 177.067 106.933C176.533 113.467 176 114.533 173.2 115.2C167.6 116.667 166.267 122 169.333 131.467C170 133.733 169.333 134.8 165.467 137.067C160.267 140.133 158.267 144.933 160.667 149.333C162.533 152.8 160.4 156 156.4 156C155.067 156 152.4 157.467 150.533 159.467C147.733 162.133 147.2 163.6 147.867 167.2C148.933 172.8 146.4 175.333 141.733 173.467C137.2 171.733 130.533 174.8 129.467 179.2C128.267 184.133 123.333 183.867 119.6 178.667C117.067 175.333 115.733 174.667 110.8 174.667H105.067L101.467 166.533C99.6 162.133 98 156.8 98 154.8C98 152.8 97.4667 150.667 96.9333 150C95.2 148 92.6667 132 92.6667 123.333C92.6667 100.133 80.2667 83.2 59.0667 77.3333L50.9333 75.2L59.0667 69.2C66 64.2666 67.7333 62 70.8 54.6666C72.8 49.8666 76.1333 43.7333 78.1333 40.9333C88.8 26 109.467 19.6 128.933 25.3333Z" fill="#0081C7"/>
<path d="M94.1333 52.9333C90.9333 56.9333 91.4667 60.6667 95.6 64.2667C99.2 67.4667 102.267 67.3333 105.733 63.6C109.467 59.6 109.467 55.8667 105.6 52.2667C101.467 48.4 97.4667 48.5333 94.1333 52.9333Z" fill="#0081C7"/>
<path d="M380.4 285.467C378.4 286.533 378 288.933 378 300.667C378 308.4 377.733 314.667 377.467 314.667C377.2 314.667 374.267 313.2 371.2 311.333C361.067 305.6 347.867 307.2 338.4 315.333C331.6 321.067 328.4 328.933 328.4 339.467C328.267 353.6 335.333 364.4 347.2 368.667C356.933 372 367.333 370.667 373.467 365.2C376.933 361.867 377.6 362 378.533 365.867C379.6 370.133 383.867 371.467 388 368.8L391.333 366.667V328.267C391.333 295.733 391.067 289.467 389.2 286.933C387.067 283.733 384 283.333 380.4 285.467ZM372.133 325.733C377.2 331.2 378.933 338.267 376.933 345.2C372.133 360.933 351.067 363.333 344.267 348.933C339.867 339.6 342.4 328.8 350.4 322.933C353.867 320.4 355.867 319.867 361.2 320.4C366.667 320.933 368.533 321.733 372.133 325.733Z" fill="#0081C7"/>
<path d="M3.33333 289.333C0.799997 291.867 0.666664 293.733 0.666664 329.333V366.667L4 368.8C6.8 370.667 8.13333 370.8 10.6667 369.6C12.5333 368.667 14 367.333 14.1333 366.4C14.1333 365.467 14.2667 359.2 14.4 352.667L14.6667 340.667H21.8667H29.0667L37.3333 353.867C45.7333 367.333 50.5333 371.467 55.3333 370C60.9333 368.267 60 363.6 51.2 350.533C43.7333 339.333 43.0667 338 45.3333 336.8C55.3333 330.8 59.7333 323.867 59.8667 313.333C60 300.667 53.0667 291.467 40.8 288C38.1333 287.333 29.2 286.667 21.0667 286.667C7.73333 286.667 5.73333 286.933 3.33333 289.333ZM38 300.667C45.7333 304.667 48 312.133 44 320C40.8 326.133 35.4667 328.133 24.2667 327.733L14.6667 327.333L14.5333 314C14.4 306.667 14.5333 300.267 14.9333 299.6C16 297.867 34 298.533 38 300.667Z" fill="#0081C7"/>
<path d="M84.6667 310.133C78.5333 312.8 73.0667 318 69.6 324.667C65.8667 331.467 65.6 347.733 69.0667 354.267C74.6667 364.933 84.6667 370.533 97.7333 370.667C112.8 370.667 124.667 363.067 119.333 356.667C117.067 354 115.067 354.133 109.333 357.467C102.267 361.6 91.3333 360.533 86 355.2C83.8667 353.067 81.7333 349.733 81.3333 347.6L80.4 344H99.3333C109.733 344 119.333 343.333 120.8 342.667C126.267 339.6 122.667 322 115.2 315.067C107.733 308.267 94.1333 306 84.6667 310.133ZM103.2 320.533C106.8 322.4 110 327.6 110 331.333C110 332.933 107.333 333.333 95.3333 333.333C87.3333 333.333 80.6667 332.933 80.6667 332.533C80.6667 332.133 81.6 329.867 82.6667 327.467C86.4 319.6 95.4667 316.533 103.2 320.533Z" fill="#0081C7"/>
<path d="M135.733 309.333C133.6 310.267 132.667 311.733 132.667 314.4C132.667 320.533 134.667 321.333 149.6 321.333H163.467L156.533 329.6C152.8 334.267 147.333 340.667 144.533 344.133C123.6 368.933 123.867 369.733 155.2 370.4C179.333 370.933 183.333 370 183.333 364.133C183.333 358.4 180.267 357.333 164 357.333H149.733L155.6 350.4C158.667 346.533 162.4 342.133 163.6 340.667C175.6 326.4 182 317.733 182 316C182 314.8 181.2 312.667 180.133 311.2C178.4 308.933 176.267 308.667 158.4 308.4C147.6 308.133 137.333 308.667 135.733 309.333Z" fill="#0081C7"/>
<path d="M208.267 309.867C199.2 313.2 195.2 318.8 198 324C199.867 327.467 202.133 327.333 207.867 323.467C218.267 316.4 230 318.4 232.667 327.867C234.667 335.067 234.667 335.067 225.2 334.133C206.933 332.267 193.867 338 191.867 348.667C189.333 362.667 197.2 370.667 213.467 370.667C220.933 370.667 226.8 368.533 229.867 364.8C232.267 361.867 234 362.133 234 365.333C234 369.067 239.333 371.467 243.2 369.467C247.067 367.333 247.467 364.667 247.067 342.667C246.533 321.2 245.333 317.2 237.733 311.733C232.267 307.867 216.267 306.933 208.267 309.867ZM232.667 344.933C233.2 345.467 233.067 348 232.4 350.4C230.8 356.267 224.533 360 216.4 360C209.2 360 206 357.6 206 352.267C206 344.8 210.4 342.4 222.533 343.2C227.6 343.6 232.133 344.4 232.667 344.933Z" fill="#0081C7"/>
<path d="M262.933 310.4C260.933 312.533 260.667 316.533 260.667 339.067C260.667 363.6 260.8 365.467 263.333 368C264.8 369.467 266.933 370.667 268 370.667C269.067 370.667 271.2 369.467 272.667 368C275.067 365.6 275.333 363.6 275.333 346.133V326.933L279.467 323.467C282.533 320.8 284.933 320 289.733 320C302 320.133 304.667 325.467 304.667 350C304.667 366.933 304.8 368 307.467 369.467C311.333 371.467 316.4 369.067 317.467 364.667C317.867 362.8 318.133 352.667 317.733 342.133C317.333 322.933 317.333 322.8 313.2 317.733C307.2 310.133 301.6 307.733 291.733 308.267C285.867 308.667 282.267 309.6 279.467 311.733L275.6 314.533L273.467 311.333C270.8 307.333 266 306.933 262.933 310.4Z" fill="#0081C7"/>
<path d="M421.6 309.867C400 317.6 393.6 345.733 409.733 362.133C417.467 369.867 432.133 372.933 443.467 369.2C457.867 364.267 466.267 349.067 463.067 332.933C461.333 323.867 453.867 314.4 445.333 310.533C439.067 307.6 428.8 307.333 421.6 309.867ZM440.533 322.4C455.067 330.133 452.267 354.533 436.4 358.8C432.133 359.867 430.267 359.6 425.467 357.467C418 354.267 414.8 348.533 414.933 339.2C415.067 324.533 428.4 315.867 440.533 322.4Z" fill="#0081C7"/>
<path d="M135.6 391.467C132 393.867 131.867 397.467 135.067 400.4C136.933 402.133 140.133 402.667 147.067 402.667H156.667V433.6C156.667 467.733 157.333 471.067 163.733 471.733C171.2 472.667 171.333 472 171.333 435.867V402.667H181.733C193.2 402.667 195.333 401.6 195.333 395.733C195.333 390.133 191.6 389.333 163.6 389.333C143.067 389.333 138 389.733 135.6 391.467Z" fill="#0081C7"/>
<path d="M66.8 411.333C52.9333 415.2 44.4 426.8 44.4 441.733C44.4 460.133 56.8 472.667 75.3333 472.667C94 472.667 106.4 460.133 106.267 441.333C106.267 426.4 97.8667 415.6 83.6 411.467C74.6667 409.067 75.3333 409.067 66.8 411.333ZM84.8 425.467C96 433.467 95.0667 452.533 83.2 458.933C67.6 467.2 52.5333 450.4 59.8667 432.8C64 423.067 76.2667 419.333 84.8 425.467Z" fill="#0081C7"/>
<path d="M208.533 411.2C200.267 413.333 194.667 417.6 190.4 425.067C187.2 430.533 186.667 432.667 186.667 442C186.8 454.4 188.667 458.8 196.8 465.733C206.267 473.867 222.133 475.467 234.133 469.333C239.333 466.667 241.333 463.2 239.867 459.467C238.8 456.533 234.267 456.8 226.8 460.133C216 464.8 203.467 460.133 201.2 450.267L200.4 446.667H219.6C241.6 446.667 243.333 446 243.333 436.533C243.2 418.933 226.133 406.4 208.533 411.2ZM224.533 424.933C226.8 427.067 228.933 430.267 229.467 432.267L230.267 436H215.467H200.667L201.467 432.267C204 421.733 216.667 417.733 224.533 424.933Z" fill="#0081C7"/>
<path d="M316.267 411.2C297.6 416.267 287.733 433.867 293.333 451.867C296 460.667 304.533 469.733 311.2 471.067C315.067 471.867 315.467 472.4 314.8 475.6C313.867 480 315.067 482.133 318.667 482.8C322.667 483.6 321.867 487.2 317.467 488C312.4 488.933 310.133 492.267 312.667 495.333C314.133 497.067 316 497.467 320.933 497.067C329.6 496.133 332.933 493.067 332.4 486.133C332.133 481.733 331.333 480.4 328 478.667C325.867 477.6 323.733 476.533 323.467 476.267C322 475.467 326.267 472.8 330 472.4C339.2 471.467 348 463.467 345.067 458.8C343.067 455.6 339.733 455.467 332.667 458.533C329.067 460.133 324.933 461.333 323.333 461.333C320.4 461.333 313.067 458 310.667 455.467C308.133 452.8 306 446.667 306 441.867C306 426.667 320.4 417.867 333.333 425.467C340.133 429.467 344.667 428.133 344.667 422.133C344.667 418.4 343.867 417.067 340.4 414.933C338 413.467 333.867 411.867 331.333 411.333C328.8 410.933 325.733 410.267 324.667 410C323.6 409.733 319.733 410.267 316.267 411.2Z" fill="#0081C7"/>
<path d="M377.067 411.333C368.4 413.333 361.733 418.267 357.067 426.4C354 431.6 353.467 434 353.467 442C353.6 456.267 360.133 466 372.667 470.8C384.8 475.467 395.733 473.467 405.333 465.067C412.933 458.4 415.867 450.8 415.067 439.467C414.4 428.133 409.333 419.733 400 414.667C391.733 410.133 386 409.2 377.067 411.333ZM392.533 424.533C407.867 432.533 402.933 459.2 385.733 460.933C374 462.133 366.533 452.933 367.6 438.8C368.133 432.267 368.8 430.933 373.333 427.067C379.067 422.133 386 421.2 392.533 424.533Z" fill="#0081C7"/>
<path d="M274.8 412.667C272.667 413.867 270.267 415.6 269.333 416.8C268 418.667 267.6 418.4 266.267 415.467C265.067 412.8 263.733 412 260.267 412C257.867 412 255.2 412.667 254.267 413.6C252.267 415.6 252 465.6 254 469.467C255.867 472.8 263.067 472.933 265.467 469.6C266.8 468 267.2 462.267 267.333 449.6V431.733L271.2 427.867C273.333 425.733 276.267 423.867 277.6 423.867C278.933 423.733 281.467 423.467 283.2 423.333C289.067 422.8 290.533 416.133 285.733 412.8C282 410.133 279.733 410.133 274.8 412.667Z" fill="#0081C7"/>
</svg>
